<?xml version="1.0" encoding="utf-8"?>
<!-- Generator: Adobe Illustrator 15.0.0, SVG Export Plug-In . SVG Version: 6.00 Build 0)  -->
<!DOCTYPE svg PUBLIC "-//W3C//DTD SVG 1.1//EN" "http://www.w3.org/Graphics/SVG/1.1/DTD/svg11.dtd">
<svg version="1.1" id="Layer_1" xmlns="http://www.w3.org/2000/svg" xmlns:xlink="http://www.w3.org/1999/xlink" x="0px" y="0px"
	 width="300px" height="200px" viewBox="0 0 300 200" enable-background="new 0 0 300 200" xml:space="preserve">
<g>
	
		<radialGradient id="SVGID_1_" cx="184.2188" cy="113.6943" r="62.2501" gradientTransform="matrix(0.9999 0.0137 -0.0021 0.1563 -3.6933 93.3859)" gradientUnits="userSpaceOnUse">
		<stop  offset="0.3212" style="stop-color:#000000"/>
		<stop  offset="1" style="stop-color:#FFFFFF;stop-opacity:0"/>
	</radialGradient>
	<path fill="url(#SVGID_1_)" d="M242.758,114.542c0.079-5.794-27.837-10.877-62.351-11.351c-34.515-0.474-62.559,3.84-62.638,9.635
		c-0.08,5.794,27.836,10.876,62.35,11.35C214.633,124.649,242.678,120.337,242.758,114.542z"/>
	<g>
		<defs>
			
				<rect id="SVGID_2_" x="62.692" y="-28.595" transform="matrix(-0.9625 0.2714 -0.2714 -0.9625 313.4244 77.557)" width="177.314" height="178.096"/>
		</defs>
		<clipPath id="SVGID_3_">
			<use xlink:href="#SVGID_2_"  overflow="visible"/>
		</clipPath>
		<path clip-path="url(#SVGID_3_)" fill="#444444" d="M119.456,61.939c1.029,1.333,1.205,3.139,0.51,4.67
			c-0.954,2.108-2.687,5.244-4.906,6.243c-3.444,1.549-3.59-1.008-4.558-1.891c-0.967-0.883-8.49-11.754-21.218-15.094
			c-10.697-2.807-24.62-4.092-28.791-4.43c-0.748-0.061-1.375-0.594-1.555-1.326c-0.204-0.836-0.418-1.849-0.354-2.188
			c0.115-0.611,1.182-1.922,2.38-2.261s17.585-0.339,32.935,4.138C106.744,53.548,116.021,57.492,119.456,61.939"/>
	</g>
	<g>
		<defs>
			
				<rect id="SVGID_4_" x="62.692" y="-28.595" transform="matrix(-0.9625 0.2714 -0.2714 -0.9625 313.4244 77.557)" width="177.314" height="178.096"/>
		</defs>
		<clipPath id="SVGID_5_">
			<use xlink:href="#SVGID_4_"  overflow="visible"/>
		</clipPath>
		<path clip-path="url(#SVGID_5_)" fill="none" d="M119.456,61.939c1.029,1.333,1.205,3.139,0.51,4.67
			c-0.954,2.108-2.687,5.244-4.906,6.243c-3.444,1.549-3.59-1.008-4.558-1.891c-0.967-0.883-8.49-11.754-21.218-15.094
			c-10.697-2.807-24.62-4.092-28.791-4.43c-0.748-0.061-1.375-0.594-1.555-1.326c-0.204-0.836-0.418-1.849-0.354-2.188
			c0.115-0.611,1.182-1.922,2.38-2.261s17.585-0.339,32.935,4.138C106.744,53.548,116.021,57.492,119.456,61.939z"/>
	</g>
	<g>
		<defs>
			
				<rect id="SVGID_6_" x="62.692" y="-28.595" transform="matrix(-0.9625 0.2714 -0.2714 -0.9625 313.4244 77.557)" width="177.314" height="178.096"/>
		</defs>
		<clipPath id="SVGID_7_">
			<use xlink:href="#SVGID_6_"  overflow="visible"/>
		</clipPath>
		<path clip-path="url(#SVGID_7_)" fill="#353535" d="M58.583,47.922c0.023-0.122,0.086-0.271,0.178-0.436
			c3.745,0.218,10.873,0.924,23.139,3.099c20.427,3.624,33.903,12.674,35.115,14.929c0.011,0.021,0.018,0.043,0.028,0.064
			c-0.566,0.389-1.09,0.816-1.418,1.24c-1.068,1.38-0.928,2.419-1.014,4.293c-0.063,1.386-1.052,2.02-2.029,2.138
			c-1.15-0.355-1.433-1.698-2.08-2.289c-0.967-0.883-8.49-11.754-21.218-15.094c-10.697-2.807-24.62-4.092-28.791-4.43
			c-0.748-0.061-1.375-0.594-1.555-1.326C58.734,49.274,58.519,48.261,58.583,47.922"/>
	</g>
	<g>
		<defs>
			
				<rect id="SVGID_8_" x="62.692" y="-28.595" transform="matrix(-0.9625 0.2714 -0.2714 -0.9625 313.4244 77.557)" width="177.314" height="178.096"/>
		</defs>
		<clipPath id="SVGID_9_">
			<use xlink:href="#SVGID_8_"  overflow="visible"/>
		</clipPath>
		<path clip-path="url(#SVGID_9_)" fill="#353535" d="M114.612,71.111c0.085-1.875-0.054-2.913,1.014-4.293
			c1.07-1.379,4.197-2.801,4.197-2.801l0.483-0.163c0.169,0.914,0.057,1.879-0.339,2.754c-0.953,2.108-2.688,5.245-4.906,6.243
			c-1.135,0.512-1.912,0.573-2.477,0.398C113.56,73.131,114.549,72.497,114.612,71.111"/>
	</g>
	<g>
		<defs>
			
				<rect id="SVGID_10_" x="62.692" y="-28.595" transform="matrix(-0.9625 0.2714 -0.2714 -0.9625 313.4244 77.557)" width="177.314" height="178.096"/>
		</defs>
		<clipPath id="SVGID_11_">
			<use xlink:href="#SVGID_10_"  overflow="visible"/>
		</clipPath>
		<path clip-path="url(#SVGID_11_)" fill="#B5B5B5" d="M129.723,74.035c0,0-5.785-5.732-11.141-7.398l-3.314,2.524
			c0,0,6.38,3.253,12.442,12.515L129.723,74.035z"/>
	</g>
	<g>
		<defs>
			
				<rect id="SVGID_12_" x="62.692" y="-28.595" transform="matrix(-0.9625 0.2714 -0.2714 -0.9625 313.4244 77.557)" width="177.314" height="178.096"/>
		</defs>
		<clipPath id="SVGID_13_">
			<use xlink:href="#SVGID_12_"  overflow="visible"/>
		</clipPath>
		<path clip-path="url(#SVGID_13_)" fill="none" d="M129.723,74.035c0,0-5.785-5.732-11.141-7.398l-3.314,2.524
			c0,0,6.38,3.253,12.442,12.515L129.723,74.035z"/>
	</g>
	<g>
		<defs>
			
				<rect id="SVGID_14_" x="62.692" y="-28.595" transform="matrix(-0.9625 0.2714 -0.2714 -0.9625 313.4244 77.557)" width="177.314" height="178.096"/>
		</defs>
		<clipPath id="SVGID_15_">
			<use xlink:href="#SVGID_14_"  overflow="visible"/>
		</clipPath>
		<path clip-path="url(#SVGID_15_)" fill="#878787" d="M115.268,69.161l0.24,1.97c0,0,9.399,5.872,14.037,14.135l-2.029-7.726
			C127.515,77.54,119.455,69.157,115.268,69.161"/>
	</g>
	<g>
		<defs>
			
				<rect id="SVGID_16_" x="62.692" y="-28.595" transform="matrix(-0.9625 0.2714 -0.2714 -0.9625 313.4244 77.557)" width="177.314" height="178.096"/>
		</defs>
		<clipPath id="SVGID_17_">
			<use xlink:href="#SVGID_16_"  overflow="visible"/>
		</clipPath>
		<path clip-path="url(#SVGID_17_)" fill="none" d="M115.268,69.161l0.24,1.97c0,0,9.399,5.872,14.037,14.135l-2.029-7.726
			C127.515,77.54,119.455,69.157,115.268,69.161z"/>
	</g>
	<g>
		<defs>
			
				<rect id="SVGID_18_" x="62.692" y="-28.595" transform="matrix(-0.9625 0.2714 -0.2714 -0.9625 313.4244 77.557)" width="177.314" height="178.096"/>
		</defs>
		<clipPath id="SVGID_19_">
			<use xlink:href="#SVGID_18_"  overflow="visible"/>
		</clipPath>
		<path clip-path="url(#SVGID_19_)" fill="#353535" stroke="#353535" stroke-width="2" d="M126.628,79.933
			c4.164-8.228,27.902-12.665,55.942-10.025c27.862,2.621,50.288,11.316,53.124,20.124c-0.229,0.632,0.696-2.407-1.344,3.249
			c-1.97,5.458-8.575,18.079-14.063,19.948c-9.657,3.292-28.008,3.492-41.453,2.228c-13.178-1.24-25.205-4.022-34.452-7.349
			c-5.9-2.123-10.458-16.607-14.186-21.667C127.739,83.105,126.802,80.47,126.628,79.933"/>
	</g>
	<g>
		<defs>
			
				<rect id="SVGID_20_" x="62.692" y="-28.595" transform="matrix(-0.9625 0.2714 -0.2714 -0.9625 313.4244 77.557)" width="177.314" height="178.096"/>
		</defs>
		<clipPath id="SVGID_21_">
			<use xlink:href="#SVGID_20_"  overflow="visible"/>
		</clipPath>
		<path clip-path="url(#SVGID_21_)" fill="none" d="M130.196,86.441c-2.458-3.335-3.394-5.971-3.568-6.508
			c4.164-8.228,27.902-12.665,55.942-10.025c27.862,2.621,50.288,11.316,53.124,20.124c-0.229,0.632-1.344,3.249-5.134,6.575
			c-4.359,3.829-9.747,6.278-15.467,7.227c-9.783,1.628-22.239,1.989-35.683,0.725"/>
	</g>
	<g>
		<defs>
			
				<rect id="SVGID_22_" x="62.692" y="-28.595" transform="matrix(-0.9625 0.2714 -0.2714 -0.9625 313.4244 77.557)" width="177.314" height="178.096"/>
		</defs>
		<clipPath id="SVGID_23_">
			<use xlink:href="#SVGID_22_"  overflow="visible"/>
		</clipPath>
		<path clip-path="url(#SVGID_23_)" fill="#353535" d="M126.415,77.28c-0.871,9.569,23.042,19.642,53.412,22.499
			c30.367,2.856,55.693-2.584,56.563-12.154c0.872-9.567-23.039-19.641-53.41-22.498C152.614,62.271,127.29,67.712,126.415,77.28"/>
	</g>
	<g>
		<defs>
			
				<rect id="SVGID_24_" x="62.692" y="-28.595" transform="matrix(-0.9625 0.2714 -0.2714 -0.9625 313.4244 77.557)" width="177.314" height="178.096"/>
		</defs>
		<clipPath id="SVGID_25_">
			<use xlink:href="#SVGID_24_"  overflow="visible"/>
		</clipPath>
		
			<path clip-path="url(#SVGID_25_)" fill="none" stroke="#263238" stroke-linecap="round" stroke-linejoin="round" stroke-miterlimit="10" d="
			M126.415,77.28c-0.871,9.569,23.042,19.642,53.412,22.499c30.367,2.856,55.693-2.584,56.563-12.154
			c0.872-9.567-23.039-19.641-53.41-22.498C152.614,62.271,127.29,67.712,126.415,77.28z"/>
	</g>
	<g>
		<defs>
			
				<rect id="SVGID_26_" x="62.692" y="-28.595" transform="matrix(-0.9625 0.2714 -0.2714 -0.9625 313.4244 77.557)" width="177.314" height="178.096"/>
		</defs>
		<clipPath id="SVGID_27_">
			<use xlink:href="#SVGID_26_"  overflow="visible"/>
		</clipPath>
		
			<radialGradient id="SVGID_28_" cx="173.3125" cy="-1019.3438" r="37.7214" fx="173.1169" fy="-1019.2099" gradientTransform="matrix(0.9954 0.0962 0.0211 -0.2179 28.2215 -149.3005)" gradientUnits="userSpaceOnUse">
			<stop  offset="0" style="stop-color:#FFFFFF"/>
			<stop  offset="0" style="stop-color:#FFFFFF"/>
			<stop  offset="0.2161" style="stop-color:#EBEBEB"/>
			<stop  offset="0.6576" style="stop-color:#B6B6B6"/>
			<stop  offset="1" style="stop-color:#8A8A8A"/>
		</radialGradient>
		<path clip-path="url(#SVGID_27_)" fill="url(#SVGID_28_)" d="M181.039,79.201c27.047,2.543,39.781,7.088,47.383,15.613
			c0.214,0.24-0.087,0.634-0.163,0.945c-9.964,4.309-28.092,6.137-48.497,4.215c-22.311-2.098-57.981-14.31-48.005-17.81
			C144.48,77.697,154.51,76.706,181.039,79.201"/>
	</g>
	<g>
		<defs>
			
				<rect id="SVGID_29_" x="62.692" y="-28.595" transform="matrix(-0.9625 0.2714 -0.2714 -0.9625 313.4244 77.557)" width="177.314" height="178.096"/>
		</defs>
		<clipPath id="SVGID_30_">
			<use xlink:href="#SVGID_29_"  overflow="visible"/>
		</clipPath>
		<path opacity="0.75" clip-path="url(#SVGID_30_)" fill="#9356DC" enable-background="new    " d="M180.79,79.177
			c27.046,2.543,39.78,7.088,47.383,15.613c0.215,0.24-0.087,0.634-0.162,0.944c-9.964,4.309-28.092,6.136-48.498,4.215
			c-22.311-2.099-57.981-14.31-48.005-17.81C144.231,77.673,154.261,76.681,180.79,79.177"/>
	</g>
	<g>
		<defs>
			
				<rect id="SVGID_31_" x="62.692" y="-28.595" transform="matrix(-0.9625 0.2714 -0.2714 -0.9625 313.4244 77.557)" width="177.314" height="178.096"/>
		</defs>
		<clipPath id="SVGID_32_">
			<use xlink:href="#SVGID_31_"  overflow="visible"/>
		</clipPath>
		<path clip-path="url(#SVGID_32_)" fill="none" d="M181.089,72.687c27.047,2.544,48.266,12.363,47.397,21.933
			c-0.031,0.319-0.088,0.634-0.163,0.945c-9.964,4.309-28.092,6.137-48.497,4.217c-22.312-2.099-41.138-8.093-49.211-14.922
			C132.281,75.621,154.56,70.192,181.089,72.687z"/>
	</g>
	<g>
		<defs>
			
				<rect id="SVGID_33_" x="62.692" y="-28.595" transform="matrix(-0.9625 0.2714 -0.2714 -0.9625 313.4244 77.557)" width="177.314" height="178.096"/>
		</defs>
		<clipPath id="SVGID_34_">
			<use xlink:href="#SVGID_33_"  overflow="visible"/>
		</clipPath>
		
			<path clip-path="url(#SVGID_34_)" fill="none" stroke="#8C8C8C" stroke-width="2" stroke-linecap="round" stroke-linejoin="round" stroke-miterlimit="10" d="
			M126.415,77.28c-0.871,9.569,23.042,19.642,53.412,22.499c30.367,2.856,55.693-2.584,56.563-12.154
			c0.872-9.567-23.039-19.641-53.41-22.498C152.614,62.271,127.29,67.712,126.415,77.28z"/>
	</g>
</g>
</svg>
