
<svg xmlns="http://www.w3.org/2000/svg" xmlns:xlink="http://www.w3.org/1999/xlink" x="0px" y="0px"
	 width="22px" height="21px" viewBox="0 0 22 21" enable-background="new 0 0 22 21" xml:space="preserve">
<path fill="#FFFFFF" stroke="#101010" d="M12.221,2.406L11,3.777l-0.374-0.42L9.78,2.406l0,0C8.781,1.279,7.486,0.635,6.175,0.519
	S3.537,0.816,2.477,1.802c-2.494,2.323-2.631,6.522-0.392,9.048l8.314,9.365l0,0c0.338,0.381,0.86,0.381,1.199,0l0,0l8.314-9.366
	l0,0c2.244-2.526,2.106-6.725-0.388-9.047 M2.477,1.802c-2.494,2.322-2.633,6.521-0.389,9.047l0,0l8.314,9.366l0,0
	c0.339,0.381,0.861,0.381,1.199,0l0,0l8.313-9.365c2.24-2.526,2.103-6.725-0.392-9.048c-1.061-0.986-2.387-1.398-3.698-1.283
	c-1.311,0.116-2.606,0.76-3.604,1.886l-0.001,0l-0.846,0.952L11,3.777L9.779,2.406"/>
</svg>
